<svg xmlns="http://www.w3.org/2000/svg" width="18" height="23" viewBox="0 0 18 23">
    <path fill="#FFF" fill-rule="nonzero" d="M14.76 5.961C14.058 3.734 11.933 3.39 9.409 3.7L8.739.545 6.817.953l.653 3.071c-.504.107-1.018.227-1.529.346l-.656-3.091-1.92.407.67 3.154c-.413.096-.82.191-1.218.276l-.002-.01-2.648.562.436 2.05s1.412-.328 1.394-.297c.778-.165 1.127.232 1.283.607l.764 3.593c.054-.012.124-.024.206-.03l-.203.043 1.07 5.034c.017.252-.044.672-.587.789.03.016-1.395.296-1.395.296l.106 2.374 2.499-.531c.465-.098.924-.188 1.373-.28l.679 3.19 1.918-.407-.67-3.156c.528-.101 1.038-.205 1.536-.312l.667 3.142 1.92-.408-.677-3.184c3.188-.872 5.275-2.165 4.91-5.255-.292-2.488-1.67-3.334-3.597-3.385.992-.804 1.476-1.95.96-3.58zm-1.237 7.392c.508 2.384-3.63 2.98-4.932 3.258l-.898-4.226c1.301-.277 5.301-1.518 5.83.968zm-2.16-5.773c.46 2.169-2.998 2.64-4.082 2.87l-.815-3.833c1.085-.23 4.416-1.3 4.897.963z"/>
</svg>