<svg xmlns="http://www.w3.org/2000/svg" width="23" height="31" viewBox="0 0 23 31">
    <path fill="#FFF" fill-rule="nonzero" d="M22.83 12.32c.47-3.145-1.923-4.835-5.197-5.963l1.062-4.259-2.593-.646L15.068 5.6c-.68-.17-1.38-.33-2.076-.489l1.04-4.174-2.59-.646-1.063 4.258a86.729 86.729 0 0 1-1.655-.39l.003-.013-3.576-.893-.69 2.77s1.924.44 1.884.468c1.05.262 1.24.957 1.208 1.507l-1.21 4.852c.072.019.166.045.27.087l-.274-.068-1.696 6.797c-.128.319-.454.797-1.188.616.026.037-1.884-.47-1.884-.47L.284 22.778l3.374.84c.628.158 1.243.323 1.848.478l-1.073 4.308 2.59.646 1.063-4.262c.706.192 1.393.37 2.065.536l-1.059 4.242 2.593.647 1.073-4.3c4.42.836 7.745.499 9.143-3.499 1.128-3.22-.055-5.076-2.381-6.288 1.694-.392 2.97-1.506 3.31-3.808zm-5.923 8.305c-.802 3.22-6.222 1.48-7.98 1.043l1.423-5.707c1.758.439 7.393 1.307 6.557 4.664zm.8-8.352c-.73 2.928-5.242 1.44-6.706 1.076l1.29-5.177c1.465.365 6.179 1.046 5.417 4.1z"/>
</svg>