<svg xmlns="http://www.w3.org/2000/svg" width="19" height="23" viewBox="0 0 19 23">
    <path fill="#FFF" fill-rule="nonzero" d="M2.387 5.064l5.042 2.912a2.989 2.989 0 0 1 1.981-.748 2.99 2.99 0 0 1 2.087.845l5.05-2.916a2.25 2.25 0 0 0-.394-.275l-2.969-1.628L8.51 5.952a.75.75 0 0 1-.75-1.299l3.886-2.243-1.154-.633a2.25 2.25 0 0 0-2.164 0l-5.66 3.105a2.252 2.252 0 0 0-.281.182zm-.823 1.257a2.249 2.249 0 0 0-.064.534v3.42l5.505 3.178a.75.75 0 1 1-.75 1.3L1.5 12.006v.795a2.25 2.25 0 0 0 1.168 1.973l5.66 3.105c.123.067.251.122.382.165v-4.899A3.001 3.001 0 0 1 6.584 9.22L1.564 6.32zM10.21 18.01c.096-.037.19-.08.282-.13l5.66-3.105a2.25 2.25 0 0 0 1.169-1.973V6.855a2.25 2.25 0 0 0-.035-.392l-5.006 2.89a3.001 3.001 0 0 1-2.07 3.768v4.889zm0 1.56v2.658h-1.5v-2.637a3.747 3.747 0 0 1-1.103-.396l-5.66-3.105A3.75 3.75 0 0 1 0 12.802V6.855c0-1.37.746-2.63 1.947-3.288L7.607.462a3.75 3.75 0 0 1 3.607 0l5.66 3.105a3.75 3.75 0 0 1 1.947 3.288v5.947a3.75 3.75 0 0 1-1.947 3.288l-5.66 3.105c-.32.175-.657.3-1.004.375zm-.8-7.842a1.5 1.5 0 1 0 0-3 1.5 1.5 0 0 0 0 3z"/>
</svg>