<svg xmlns="http://www.w3.org/2000/svg" width="24" height="26" viewBox="0 0 24 26">
    <path fill="#FFF" fill-rule="evenodd" d="M.87 14.082h2.476l-.017-.129v-.128l-.017-.147v-.275l-.017-.128v-.55l.017-.129v-.274l.017-.129v-.146l.017-.129H0l.836-2.164h2.851l.137-.531.153-.495.171-.514.205-.495.205-.477.222-.476.256-.459.256-.44.29-.44.29-.421.307-.404.324-.403.342-.367.358-.367.359-.348.375-.348.393-.312.41-.293.41-.294.426-.257.444-.256.444-.22.46-.22.462-.184.477-.164.495-.147.479-.129.511-.11.496-.073.512-.055.529-.037.512-.018.631.018.615.055.614.074.598.128.597.147.564.165.563.22.563.238.53.257.529.293.512.312.495.348.478.367.46.385.427.422.427.44-.836 2.145-.034.037-.359-.44-.376-.422-.41-.385-.409-.367-.444-.348-.443-.312-.478-.293-.478-.275-.495-.239-.512-.201-.53-.184-.546-.146-.546-.11-.546-.092-.58-.055-.581-.018-.41.018-.41.018-.426.055-.393.055-.41.092-.392.092-.393.11-.375.128-.376.147-.375.165-.359.183-.358.183-.342.202-.341.22-.324.238-.325.239-.307.257-.307.275-.29.293-.273.293-.274.312-.256.312-.256.33-.222.33-.222.348-.221.367-.188.367-.188.366-.17.385-.154.404-.154.403-.12.403h15.91l-.837 2.164H5.36v.129l-.016.146v.129l-.017.128v1.1l.017.128v.147l.017.128v.129h14.663l-.837 2.164h-13.4l.12.421.154.385.153.403.171.385.188.367.188.367.221.367.222.348.222.33.256.33.256.33.274.294.273.311.29.275.307.275.307.257.325.238.324.239.341.22.342.201.358.202.359.165.375.165.376.147.375.128.393.11.392.11.41.073.393.074.427.036.41.037h.409l.58-.018.564-.055.563-.074.546-.128.546-.147.53-.183.512-.202.495-.238.478-.275.478-.293.443-.312.444-.349.41-.366.41-.385.375-.422.359-.421v3.043l-.41.33-.41.33-.426.312-.444.275-.444.275-.461.238-.478.239-.478.201-.495.184-.495.147-.512.146-.53.11-.529.092-.529.055-.529.037-.563.018h-.512l-.53-.037-.511-.073-.496-.073-.511-.11-.479-.129-.495-.147-.477-.165-.461-.183-.461-.22-.444-.22-.444-.257-.427-.256-.41-.294-.41-.293-.392-.312-.375-.33-.359-.367-.358-.348-.342-.385-.324-.404-.307-.403-.29-.421-.29-.44-.256-.44-.256-.46-.222-.476-.205-.476-.205-.496-.17-.495-.154-.513-.137-.531H.034z"/>
</svg>