<svg xmlns="http://www.w3.org/2000/svg" width="14" height="13" viewBox="0 0 14 13">
    <path fill="#212121" fill-rule="nonzero" d="M13.061 3.318A6.812 6.812 0 0 0 10.514.894 7.115 7.115 0 0 0 7 0C5.73 0 4.559.298 3.486.894A6.81 6.81 0 0 0 .94 3.318 6.278 6.278 0 0 0 0 6.663C0 8.115.445 9.42 1.335 10.58a6.845 6.845 0 0 0 3.45 2.407c.164.03.286.009.365-.06a.332.332 0 0 0 .118-.26l-.005-.47a73.75 73.75 0 0 1-.004-.771l-.21.034a2.807 2.807 0 0 1-.506.03 4.043 4.043 0 0 1-.633-.06 1.451 1.451 0 0 1-.61-.26 1.104 1.104 0 0 1-.402-.533l-.09-.2a2.152 2.152 0 0 0-.288-.443 1.087 1.087 0 0 0-.396-.33l-.064-.043a.658.658 0 0 1-.119-.104.474.474 0 0 1-.082-.121c-.018-.04-.003-.074.046-.1a.618.618 0 0 1 .264-.039l.182.026c.122.023.272.092.452.208.179.116.326.266.442.451.14.237.308.418.505.542.198.125.397.187.597.187.2 0 .374-.015.52-.043.146-.03.282-.073.41-.13.055-.388.204-.686.447-.894a6.528 6.528 0 0 1-.935-.156 3.827 3.827 0 0 1-.856-.339 2.43 2.43 0 0 1-.734-.581c-.194-.231-.354-.535-.478-.911a4.138 4.138 0 0 1-.187-1.301c0-.7.24-1.296.72-1.788-.225-.526-.204-1.116.064-1.77.176-.052.437-.012.783.118.347.13.6.241.761.334.162.092.29.17.388.234A6.78 6.78 0 0 1 7 3.218a6.78 6.78 0 0 1 1.75.226l.346-.208c.237-.139.517-.266.839-.382.322-.116.568-.147.738-.095.274.653.298 1.243.073 1.77.48.491.72 1.087.72 1.787 0 .491-.062.926-.187 1.305-.124.38-.285.683-.483.911-.197.229-.443.421-.738.577-.295.156-.58.27-.857.339a6.52 6.52 0 0 1-.934.156c.316.26.474.67.474 1.232v1.83c0 .104.038.191.114.26.076.07.196.09.36.06a6.844 6.844 0 0 0 3.45-2.406A6.27 6.27 0 0 0 14 6.663a6.283 6.283 0 0 0-.939-3.345z"/>
</svg>
