<svg xmlns="http://www.w3.org/2000/svg" width="16" height="22" viewBox="0 0 16 22">
    <path fill="#FFF" fill-rule="nonzero" d="M4.668 12.025H1.023a.993.993 0 0 1 0-1.988H3.85a5.141 5.141 0 0 0-.42-.533 5.27 5.27 0 0 1-1.415-3.445C2.314 2.502 5.408-.155 8.961.093c3.554-.248 6.648 2.41 6.946 5.966a.993.993 0 1 1-1.985 0 4.567 4.567 0 0 0-4.96-3.977A4.567 4.567 0 0 0 4 6.059c.044.806.378 1.569.939 2.148a7.116 7.116 0 0 1 1.18 1.83h6.811a.993.993 0 0 1 0 1.988H6.677a7.129 7.129 0 0 1-.413 3.465l-1.587 3.977a17.274 17.274 0 0 1 5.912.13c1.43.231 2.876.36 4.326.383a.993.993 0 0 1 0 1.99 32.32 32.32 0 0 1-4.6-.399 12.676 12.676 0 0 0-6.946.336 1.005 1.005 0 0 1-.361.062.993.993 0 0 1-.921-1.364l2.336-5.853a5.143 5.143 0 0 0 .245-2.727z"/>
</svg>