<svg xmlns="http://www.w3.org/2000/svg" width="27" height="31" viewBox="0 0 27 31">
    <path fill="#FFF" fill-rule="nonzero" d="M5.022 4.782l5.3 3.116 1.395-.805L6.364 4.01 13.332 0l13.274 7.672v5.883L21 16.735v1.61l5.607-3.245v8.32l-13.274 7.236-5.11-2.773.05-6.202-1.395-.805.006 6.28L0 23.421V7.672l5.022-2.89zm13.922 3.155l3.751 2.165v2.381l1.16-.687V9.271l-10.392-6-1.257.776 5.402 3.118-5.756 3.316 1.394.805 5.698-3.35zM17.061 23.79l-3.751 2.166-2.062-1.19.015 1.347 2.187 1.263 10.392-6-.044-1.476-5.401 3.119.006-6.643-1.394.805.052 6.61zM4.13 14.403v-4.33l2.062-1.191L5.02 8.22 2.832 9.484v12l1.3.7v-6.238l5.749 3.327v-1.61l-5.75-3.26zm10 1.334l5.563-3.211-.02-.912-.78-.474-5.692 3.286-5.691-3.286-.78.474-.02.912 5.82 3.36v6.535l.8.438.8-.438v-6.684z"/>
</svg>