<svg xmlns="http://www.w3.org/2000/svg" width="14" height="12" viewBox="0 0 14 12">
    <path fill="#212121" fill-rule="nonzero" d="M14 1.381c-.52.234-1.075.39-1.654.465A2.915 2.915 0 0 0 13.61.219a5.65 5.65 0 0 1-1.82.713A2.843 2.843 0 0 0 9.692 0C8.103 0 6.824 1.323 6.824 2.944c0 .234.02.458.067.672C4.505 3.496 2.393 2.323.975.536.727.978.582 1.483.582 2.026c0 1.02.512 1.923 1.275 2.446A2.78 2.78 0 0 1 .56 4.108v.033c0 1.43.995 2.618 2.3 2.892a2.797 2.797 0 0 1-.753.097c-.184 0-.37-.01-.543-.05.372 1.166 1.427 2.023 2.681 2.05A5.676 5.676 0 0 1 0 10.347a7.934 7.934 0 0 0 4.403 1.32c5.282 0 8.169-4.487 8.169-8.376 0-.13-.004-.256-.01-.38A5.809 5.809 0 0 0 14 1.38z"/>
</svg>
