<svg xmlns="http://www.w3.org/2000/svg" width="16" height="28" viewBox="0 0 16 28">
    <path fill="#FAFAFA" fill-rule="nonzero" d="M6.62 25.696C3.187 25.422.367 22.754.069 19.293c0-.59.49-1.068 1.092-1.068a1.08 1.08 0 0 1 1.092 1.068c.295 2.272 2.135 3.991 4.369 4.26v-8.538C3.135 14.739.068 12.049.068 8.612c0-3.538 3.067-6.146 6.553-6.405V1.135c0-.59.489-1.068 1.092-1.068a1.08 1.08 0 0 1 1.092 1.068v1.074c3.434.275 6.255 2.943 6.552 6.403a1.08 1.08 0 0 1-1.092 1.068 1.08 1.08 0 0 1-1.092-1.068c-.295-2.271-2.134-3.991-4.368-4.259v8.535c3.486.257 6.552 2.858 6.552 6.405 0 3.463-3.066 6.133-6.552 6.404v1.073a1.08 1.08 0 0 1-1.092 1.069A1.08 1.08 0 0 1 6.62 26.77v-1.074zm2.185-2.136c2.305-.239 4.368-1.886 4.368-4.267 0-2.247-2.063-3.99-4.368-4.259v8.526zM6.62 4.348c-2.305.25-4.369 1.93-4.369 4.264 0 2.268 2.064 3.997 4.369 4.26V4.348z"/>
</svg>