<svg xmlns="http://www.w3.org/2000/svg" width="14" height="21" viewBox="0 0 14 21">
    <path fill="#FFF" fill-rule="evenodd" d="M13 12.09H8v-1.908h5c.552 0 1-.427 1-.955 0-.527-.448-.954-1-.954H8.674l3.873-6.866c.262-.464.08-1.043-.406-1.293-.487-.25-1.093-.076-1.355.388L7 7.214 3.214.502C2.952.038 2.345-.136 1.859.114s-.668.83-.406 1.293l3.873 6.866H1c-.552 0-1 .427-1 .954 0 .528.448.955 1 .955h5v1.909H1c-.552 0-1 .427-1 .955C0 13.573.448 14 1 14h5v6.046c0 .527.448.954 1 .954s1-.427 1-.955V14h5c.552 0 1-.427 1-.954 0-.528-.448-.955-1-.955z"/>
</svg>